<!DOCTYPE svg PUBLIC "-//W3C//DTD SVG 1.1//EN" "http://www.w3.org/Graphics/SVG/1.1/DTD/svg11.dtd">
<!-- Uploaded to: SVG Repo, www.svgrepo.com, Transformed by: SVG Repo Mixer Tools -->
<svg height="800px" width="800px" version="1.1" id="Layer_1" xmlns="http://www.w3.org/2000/svg" xmlns:xlink="http://www.w3.org/1999/xlink" viewBox="-25.6 -25.6 563.20 563.20" xml:space="preserve" fill="#e0fffb" stroke="#e0fffb" transform="rotate(0)">
<g id="SVGRepo_bgCarrier" stroke-width="0"/>
<g id="SVGRepo_tracerCarrier" stroke-linecap="round" stroke-linejoin="round" stroke="#969696" stroke-width="11.264"> <g> <path style="fill:#e0fffb;" d="M498.455,213.211v183.304c0,25.437-20.629,46.053-46.053,46.053h-2.709h-40.635V308.243v-5.648 c0-31.37,16.173-58.975,40.635-74.917C463.712,218.535,480.467,213.211,498.455,213.211z"/> <polygon style="fill:#e0fffb;" points="449.693,442.568 449.693,490.436 377.972,490.436 377.972,442.568 409.058,442.568 "/> </g> <path style="fill:#e0fffb;" d="M449.693,78.114v149.564c-24.462,15.942-40.635,43.547-40.635,74.917v5.648H102.942v-5.648 c0-31.37-16.173-58.975-40.635-74.917V78.114c0-31.221,25.316-56.55,56.55-56.55h274.286 C424.378,21.564,449.693,46.893,449.693,78.114z"/> <polygon style="fill:#e0fffb;" points="409.058,308.243 409.058,442.568 377.972,442.568 134.028,442.568 102.942,442.568 102.942,308.243 "/> <g> <polygon style="fill:#e0fffb;" points="134.028,442.568 134.028,490.436 62.307,490.436 62.307,442.568 102.942,442.568 "/> <path style="fill:#e0fffb;" d="M62.307,227.677c24.462,15.942,40.635,43.547,40.635,74.917v5.648v134.326H62.307h-2.709 c-25.424,0-46.053-20.615-46.053-46.053V213.211C31.533,213.211,48.288,218.535,62.307,227.677z"/> </g> <path d="M498.455,199.666c-12.117,0-24.008,2.124-35.217,6.206V78.114c0-38.651-31.445-70.095-70.095-70.095H118.857 c-38.651,0-70.095,31.445-70.095,70.095v127.759c-11.21-4.082-23.1-6.206-35.217-6.206C6.064,199.666,0,205.732,0,213.211v183.304 c0,29.161,21.058,53.48,48.762,58.593v35.328c0,7.48,6.064,13.545,13.545,13.545h71.721c7.481,0,13.545-6.065,13.545-13.545v-34.323 h216.855v34.323c0,7.48,6.065,13.545,13.545,13.545h71.721c7.48,0,13.545-6.065,13.545-13.545v-35.328 C490.942,449.997,512,425.677,512,396.516V213.211C512,205.732,505.935,199.666,498.455,199.666z M59.598,429.023 c-17.924,0-32.508-14.584-32.508-32.508v-168.55c9.885,1.784,19.329,5.521,27.821,11.059c21.593,14.072,34.485,37.838,34.485,63.569 v126.429h-27.09H59.598z M120.483,476.891H75.852v-20.778h44.631V476.891z M134.028,429.023h-17.541V321.788h22.18 c7.481,0,13.545-6.065,13.545-13.545c0-7.48-6.064-13.545-13.545-13.545h-22.491c-2.234-29.357-16.843-56.19-40.323-74.025V78.114 c0-23.713,19.292-43.005,43.005-43.005h274.286c23.713,0,43.005,19.292,43.005,43.005v142.56 c-23.48,17.839-38.09,44.67-40.323,74.025H225.524c-7.481,0-13.545,6.065-13.545,13.545c0,7.48,6.064,13.545,13.545,13.545h169.989 v107.236h-17.541H134.028z M436.148,476.891h-44.631v-20.778h44.631V476.891z M484.91,396.516c0,17.924-14.584,32.508-32.508,32.508 h-2.709h-27.09V302.595c0-25.731,12.892-49.496,34.49-63.573c8.49-5.537,17.932-9.273,27.817-11.057V396.516z"/> <path d="M184.889,294.698h-4.571c-7.481,0-13.545,6.065-13.545,13.545c0,7.48,6.064,13.545,13.545,13.545h4.571 c7.481,0,13.545-6.065,13.545-13.545C198.434,300.763,192.37,294.698,184.889,294.698z"/> </g>
<g id="SVGRepo_iconCarrier"> <g> <path style="fill:#e0fffb;" d="M498.455,213.211v183.304c0,25.437-20.629,46.053-46.053,46.053h-2.709h-40.635V308.243v-5.648 c0-31.37,16.173-58.975,40.635-74.917C463.712,218.535,480.467,213.211,498.455,213.211z"/> <polygon style="fill:#e0fffb;" points="449.693,442.568 449.693,490.436 377.972,490.436 377.972,442.568 409.058,442.568 "/> </g> <path style="fill:#e0fffb;" d="M449.693,78.114v149.564c-24.462,15.942-40.635,43.547-40.635,74.917v5.648H102.942v-5.648 c0-31.37-16.173-58.975-40.635-74.917V78.114c0-31.221,25.316-56.55,56.55-56.55h274.286 C424.378,21.564,449.693,46.893,449.693,78.114z"/> <polygon style="fill:#e0fffb;" points="409.058,308.243 409.058,442.568 377.972,442.568 134.028,442.568 102.942,442.568 102.942,308.243 "/> <g> <polygon style="fill:#e0fffb;" points="134.028,442.568 134.028,490.436 62.307,490.436 62.307,442.568 102.942,442.568 "/> <path style="fill:#e0fffb;" d="M62.307,227.677c24.462,15.942,40.635,43.547,40.635,74.917v5.648v134.326H62.307h-2.709 c-25.424,0-46.053-20.615-46.053-46.053V213.211C31.533,213.211,48.288,218.535,62.307,227.677z"/> </g> <path d="M498.455,199.666c-12.117,0-24.008,2.124-35.217,6.206V78.114c0-38.651-31.445-70.095-70.095-70.095H118.857 c-38.651,0-70.095,31.445-70.095,70.095v127.759c-11.21-4.082-23.1-6.206-35.217-6.206C6.064,199.666,0,205.732,0,213.211v183.304 c0,29.161,21.058,53.48,48.762,58.593v35.328c0,7.48,6.064,13.545,13.545,13.545h71.721c7.481,0,13.545-6.065,13.545-13.545v-34.323 h216.855v34.323c0,7.48,6.065,13.545,13.545,13.545h71.721c7.48,0,13.545-6.065,13.545-13.545v-35.328 C490.942,449.997,512,425.677,512,396.516V213.211C512,205.732,505.935,199.666,498.455,199.666z M59.598,429.023 c-17.924,0-32.508-14.584-32.508-32.508v-168.55c9.885,1.784,19.329,5.521,27.821,11.059c21.593,14.072,34.485,37.838,34.485,63.569 v126.429h-27.09H59.598z M120.483,476.891H75.852v-20.778h44.631V476.891z M134.028,429.023h-17.541V321.788h22.18 c7.481,0,13.545-6.065,13.545-13.545c0-7.48-6.064-13.545-13.545-13.545h-22.491c-2.234-29.357-16.843-56.19-40.323-74.025V78.114 c0-23.713,19.292-43.005,43.005-43.005h274.286c23.713,0,43.005,19.292,43.005,43.005v142.56 c-23.48,17.839-38.09,44.67-40.323,74.025H225.524c-7.481,0-13.545,6.065-13.545,13.545c0,7.48,6.064,13.545,13.545,13.545h169.989 v107.236h-17.541H134.028z M436.148,476.891h-44.631v-20.778h44.631V476.891z M484.91,396.516c0,17.924-14.584,32.508-32.508,32.508 h-2.709h-27.09V302.595c0-25.731,12.892-49.496,34.49-63.573c8.49-5.537,17.932-9.273,27.817-11.057V396.516z"/> <path d="M184.889,294.698h-4.571c-7.481,0-13.545,6.065-13.545,13.545c0,7.48,6.064,13.545,13.545,13.545h4.571 c7.481,0,13.545-6.065,13.545-13.545C198.434,300.763,192.37,294.698,184.889,294.698z"/> </g>
</svg>