<!DOCTYPE svg PUBLIC "-//W3C//DTD SVG 1.1//EN" "http://www.w3.org/Graphics/SVG/1.1/DTD/svg11.dtd">
<!-- Uploaded to: SVG Repo, www.svgrepo.com, Transformed by: SVG Repo Mixer Tools -->
<svg width="800px" height="800px" viewBox="-4.8 -4.8 57.60 57.60" id="b" xmlns="http://www.w3.org/2000/svg" fill="#000000" stroke="#000000" stroke-width="1.6799999999999997">
<g id="SVGRepo_bgCarrier" stroke-width="0">
<rect x="-4.8" y="-4.8" width="57.60" height="57.60" rx="5.76" fill="#d82d88" strokewidth="0"/>
</g>
<g id="SVGRepo_tracerCarrier" stroke-linecap="round" stroke-linejoin="round"/>
<g id="SVGRepo_iconCarrier">
<defs>
<style>.c{fill:none;stroke:#ffffff;stroke-linecap:round;stroke-linejoin:round;}</style>
</defs>
<circle class="c" cx="34.5709" cy="13.4286" r="7.9291"/>
<path class="c" d="m5.5008,21.3573v-11.8915c0-1.9849,1.8504-3.964,3.9644-3.964,2.1186,0,3.9644,1.9783,3.9644,3.964v11.8915"/>
<path class="c" d="m13.4288,9.4648c0-1.9849,1.8504-3.964,3.9644-3.964,2.1186,0,3.9644,1.9783,3.9644,3.964v11.8915"/>
<path class="c" d="m5.5,42.5v-11.8925c0-1.985,1.8504-3.9642,3.9644-3.9642,2.1186,0,3.9644,1.9784,3.9644,3.9642v11.8925"/>
<path class="c" d="m13.4288,30.6075c0-1.985,1.8504-3.9642,3.9644-3.9642,2.1186,0,3.9644,1.9784,3.9644,3.9642v11.8925"/>
<circle class="c" cx="34.5709" cy="34.5714" r="7.9291"/>
</g>
</svg>