<!DOCTYPE svg PUBLIC "-//W3C//DTD SVG 1.1//EN" "http://www.w3.org/Graphics/SVG/1.1/DTD/svg11.dtd">
<!-- Uploaded to: SVG Repo, www.svgrepo.com, Transformed by: SVG Repo Mixer Tools -->
<svg version="1.1" id="Layer_1" xmlns="http://www.w3.org/2000/svg" xmlns:xlink="http://www.w3.org/1999/xlink" viewBox="0 0 512 512" xml:space="preserve" width="800px" height="800px" fill="#000000">
<g id="SVGRepo_bgCarrier" stroke-width="0"/>
<g id="SVGRepo_tracerCarrier" stroke-linecap="round" stroke-linejoin="round"/>
<g id="SVGRepo_iconCarrier"> <g> <path style="fill:#8c8c8c;" d="M70.707,93.036L108.404,256L70.707,418.964C53.693,434.106,21.588,444.485,0,444.485V67.515 C21.588,67.515,53.693,77.894,70.707,93.036z"/> <path style="fill:#8c8c8c;" d="M512,67.515v376.97c-21.575,0-53.693-10.379-70.707-25.521L403.596,256l37.697-162.964 C458.307,77.894,490.425,67.515,512,67.515z"/> </g> <rect x="70.707" y="93.036" style="fill:#8c8c8c;" width="370.586" height="325.928"/> <path style="fill:#ffffff;" d="M378.726,292.002c0,29.737-24.106,53.843-53.843,53.843H187.115 c-29.737,0-53.843-24.106-53.843-53.843v-72.005c0-29.737,24.106-53.843,53.843-53.843h137.77c29.737,0,53.843,24.106,53.843,53.843 v72.005H378.726z"/> <path style="fill:#8c8c8c;" d="M279.896,219.998H133.274v72.005h146.624c19.884,0,36.002-16.119,36.002-36.002 S299.78,219.998,279.896,219.998z"/> </g>
</svg>